# xmcd CD database file
#
# Track frame offsets:
#	750
#	24306
#	40555
#	60402
#	86842
#	113102
#	132550
#	154535
#	189352
#	211087
#	231488
#	251193
#	271974
#	310309
#	317809
#
# Disc length: 4245 seconds
#
# Revision: 0
# Processed by: cddbd v1.4PL0 Copyright (c) Steve Scherf et al.
# Submitted via: CDex 1.50beta10
#
DISCID=c9108b0f
DTITLE=Blues Company - Two Nights Only
DYEAR=2001
DGENRE=Blues
TTITLE0=Blues Is My Middlename
TTITLE1=I've Got The Blues
TTITLE2=Invitation To The Blues
TTITLE3=Rollin' And Tumblin
TTITLE4=747
TTITLE5=Good Man Bad
TTITLE6=Bo Diddely's Groove
TTITLE7=I Just Can't Keep From Cryin
TTITLE8=Dont't Do That - She Might Get Mad
TTITLE9=Dinner At Woolfies
TTITLE10=Walkin Blues
TTITLE11=The Blues Is Allright
TTITLE12=(They Called Him) Muddy Waters
TTITLE13=Data 1
TTITLE14=Data 2
EXTD=YEAR: 2001
EXTT0=
EXTT1=
EXTT2=
EXTT3=
EXTT4=
EXTT5=
EXTT6=
EXTT7=
EXTT8=
EXTT9=
EXTT10=
EXTT11=
EXTT12=
EXTT13=
EXTT14=
PLAYORDER=
